<svg width="256" height="256" viewBox="0 0 256 256" fill="none" xmlns="http://www.w3.org/2000/svg">
<rect width="256" height="256" fill="#4C40CF"/>
<rect x="25" y="25" width="206" height="206" rx="10" fill="white"/>
<path d="M202 113.126C202 119.116 198.437 122.956 192.677 122.956C186.992 122.956 183.353 119.462 183.353 113.049C183.353 107.059 186.916 103.219 192.677 103.219C198.362 103.219 202 106.752 202 113.126ZM190.251 113.049C190.251 116.697 191.009 118.08 192.677 118.08C194.344 118.08 195.102 116.62 195.102 113.126C195.102 109.478 194.344 108.096 192.677 108.096C191.009 108.096 190.213 109.593 190.251 113.049Z" fill="#2E2F5E"/>
<path d="M181.686 105.6L179.298 109.286C178.009 108.441 176.531 107.981 174.977 107.942C173.84 107.942 173.461 108.288 173.461 108.787C173.461 109.401 173.651 109.67 177.1 110.745C180.549 111.821 182.406 113.318 182.406 116.659C182.406 120.422 178.843 122.995 173.84 122.995C170.657 122.995 167.738 121.843 165.881 120.076L169.065 116.505C170.353 117.542 172.021 118.31 173.689 118.31C174.864 118.31 175.584 117.926 175.584 117.196C175.584 116.313 175.205 116.121 172.097 115.161C168.724 114.124 166.829 112.166 166.829 109.209C166.829 105.907 169.633 103.258 174.712 103.258C177.403 103.219 180.018 104.141 181.686 105.6Z" fill="#2E2F5E"/>
<path d="M164.972 105.6L162.584 109.286C161.296 108.441 159.818 107.981 158.264 107.942C157.127 107.942 156.748 108.288 156.748 108.787C156.748 109.401 156.937 109.67 160.386 110.745C163.835 111.821 165.692 113.318 165.692 116.659C165.692 120.422 162.13 122.995 157.127 122.995C153.943 122.995 151.025 121.843 149.168 120.076L152.351 116.505C153.64 117.542 155.308 118.31 156.975 118.31C158.15 118.31 158.87 117.926 158.87 117.196C158.87 116.313 158.491 116.121 155.383 115.161C151.972 114.124 150.115 112.166 150.115 109.209C150.115 105.907 152.92 103.258 157.999 103.258C160.689 103.219 163.305 104.141 164.972 105.6Z" fill="#2E2F5E"/>
<path d="M148.826 118.464L147.461 122.803C145.112 122.649 143.596 121.996 142.572 120.268C141.246 122.304 139.161 122.956 137.115 122.956C133.476 122.956 131.127 120.499 131.127 117.12C131.127 113.049 134.159 110.822 139.881 110.822H141.17V110.361C141.17 108.518 140.564 108.019 138.555 108.019C136.963 108.096 135.371 108.441 133.893 108.979L132.453 104.678C134.727 103.757 137.153 103.296 139.616 103.219C145.377 103.219 147.727 105.446 147.727 109.977V116.313C147.727 117.619 148.03 118.156 148.826 118.464ZM141.208 117.081V114.355H140.488C138.593 114.355 137.721 115.008 137.721 116.428C137.721 117.465 138.29 118.156 139.199 118.156C139.995 118.156 140.753 117.734 141.208 117.081Z" fill="#2E2F5E"/>
<path d="M130.103 113.126C130.103 119.116 126.54 122.956 120.779 122.956C115.094 122.956 111.456 119.462 111.456 113.049C111.456 107.059 115.019 103.219 120.779 103.219C126.464 103.219 130.103 106.752 130.103 113.126ZM118.354 113.049C118.354 116.697 119.112 118.08 120.779 118.08C122.447 118.08 123.205 116.62 123.205 113.126C123.205 109.478 122.447 108.096 120.779 108.096C119.112 108.096 118.316 109.593 118.354 113.049Z" fill="#2E2F5E"/>
<path d="M102.285 117.004V96.6912L108.993 96V116.659C108.993 117.273 109.258 117.58 109.827 117.58C110.054 117.58 110.32 117.542 110.547 117.427L111.76 122.265C110.547 122.687 109.296 122.918 108.046 122.879C104.331 122.956 102.285 120.768 102.285 117.004Z" fill="#2E2F5E"/>
<path d="M92.1276 117.004V96.6912L98.8359 96V116.659C98.8359 117.273 99.1012 117.58 99.6318 117.58C99.8592 117.58 100.125 117.542 100.352 117.427L101.527 122.265C100.314 122.687 99.0633 122.918 97.8126 122.879C94.1742 122.956 92.1276 120.768 92.1276 117.004Z" fill="#2E2F5E"/>
<path d="M90.3084 115.008H79.3174C79.6964 117.657 80.985 118.118 82.9558 118.118C84.2444 118.118 85.4951 117.58 87.049 116.505L89.7778 120.23C87.6933 121.996 85.0403 122.956 82.3115 122.956C75.6789 122.956 72.5332 118.809 72.5332 113.126C72.5332 107.75 75.5652 103.219 81.5535 103.219C86.8974 103.219 90.4221 106.675 90.4221 112.819C90.46 113.433 90.3842 114.355 90.3084 115.008ZM83.8654 110.937C83.8275 109.094 83.4485 107.558 81.743 107.558C80.3028 107.558 79.5827 108.403 79.3174 111.206H83.8654V110.937Z" fill="#2E2F5E"/>
<path d="M70.714 108.71V122.227H64.0056V109.939C64.0056 108.48 63.5887 108.134 62.9823 108.134C62.2622 108.134 61.5042 108.71 60.7083 109.939V122.188H54V96.6912L60.7083 96V105.561C62.2622 103.91 63.7782 103.219 65.8248 103.219C68.8568 103.219 70.714 105.216 70.714 108.71Z" fill="#2E2F5E"/>
<path d="M140.185 44.3179C152.007 51.1567 156.062 66.3001 149.233 78.1406C147.879 80.4882 146.199 82.5301 144.284 84.2417L144.284 84.2415C143.463 84.9546 142.563 85.5984 141.584 86.1629C133.761 90.6888 123.875 88.3981 118.781 81.1344C119.242 81.7789 119.768 81.8449 120.337 81.8497C130.098 81.716 139.522 76.5361 144.808 67.4936C144.81 67.4886 144.837 67.4416 144.865 67.3946C144.892 67.3475 144.919 67.3005 144.922 67.2955C149.703 59.0057 146.865 48.4033 138.587 43.6196C137.613 43.0551 136.605 42.5995 135.576 42.243C137.149 42.7679 138.691 43.4562 140.185 44.3179Z" fill="url(#paint0_linear_1_3)"/>
<path d="M118.75 81.0901C118.748 81.0874 118.747 81.0848 118.745 81.0821C118.745 81.0818 118.744 81.0816 118.744 81.0813C118.746 81.0842 118.748 81.0872 118.75 81.0901Z" fill="url(#paint1_linear_1_3)"/>
<path d="M127.823 41C114.171 41 103.1 52.0877 103.1 65.7604C103.1 67.4837 103.278 69.1724 103.614 70.7967C103.407 69.727 103.298 68.6227 103.298 67.4936C103.298 57.9213 111.046 50.1613 120.604 50.1613H120.831C131.289 50.2257 140.481 55.8117 145.48 64.2054C145.756 64.6958 145.963 65.1771 145.654 65.8825C149.368 57.8365 146.401 48.1355 138.587 43.6197C137.613 43.0551 136.605 42.5995 135.576 42.243C135.576 42.2428 135.577 42.2427 135.577 42.2426C133.138 41.4363 130.531 41 127.823 41Z" fill="url(#paint2_linear_1_3)"/>
<path d="M103.598 70.7394C103.605 70.7585 103.61 70.7776 103.614 70.7966C103.407 69.727 103.298 68.6227 103.298 67.4936C103.298 58.4242 110.253 50.9818 119.113 50.2247C119.112 50.2253 119.111 50.2257 119.111 50.2257C118.28 50.2851 117.949 50.7209 117.652 51.2211C112.89 59.7535 112.653 70.5193 117.83 79.6213C117.835 79.6262 117.939 79.8094 117.944 79.8193C122.72 88.1091 133.307 90.9516 141.584 86.163C142.563 85.5984 143.463 84.9546 144.284 84.2415C143.043 85.3459 141.678 86.3412 140.185 87.2029C128.362 94.0417 113.241 89.981 106.413 78.1406C105.048 75.7745 104.118 73.2766 103.598 70.7394Z" fill="url(#paint3_linear_1_3)"/>
<g clip-path="url(#clip0_1_3)">
<path d="M89.9818 167H159.984C164.414 167 168.001 170.558 168.001 174.954V201.468C168.001 205.864 164.415 209.423 159.984 209.423H134.881L138.327 217.795L123.173 209.423H90.0174C85.5874 209.423 82.0009 205.864 82.0009 201.468V174.954C81.9658 170.593 85.5518 167 89.9818 167Z" fill="#7F54B3"/>
<path d="M86.8973 174.25C87.3867 173.591 88.1209 173.244 89.0997 173.175C90.8827 173.036 91.8965 173.868 92.1412 175.672C93.2249 182.922 94.4136 189.062 95.6723 194.092L103.328 179.627C104.027 178.309 104.901 177.615 105.95 177.546C107.488 177.442 108.432 178.413 108.817 180.459C109.691 185.073 110.81 188.993 112.138 192.323C113.047 183.512 114.585 177.164 116.753 173.244C117.277 172.273 118.046 171.787 119.06 171.718C119.864 171.648 120.598 171.891 121.263 172.412C121.927 172.932 122.276 173.591 122.346 174.389C122.381 175.013 122.276 175.533 121.997 176.054C120.633 178.551 119.515 182.749 118.606 188.576C117.732 194.23 117.417 198.636 117.627 201.792C117.697 202.66 117.557 203.423 117.207 204.082C116.788 204.845 116.159 205.261 115.355 205.331C114.446 205.4 113.502 204.984 112.593 204.047C109.342 200.752 106.754 195.826 104.867 189.27C102.595 193.71 100.917 197.04 99.8328 199.26C97.7703 203.18 96.0223 205.192 94.5539 205.296C93.61 205.365 92.8059 204.567 92.1067 202.902C90.3238 198.358 88.401 189.582 86.3384 176.574C86.1985 175.672 86.4083 174.874 86.8977 174.25L86.8973 174.25ZM162.026 179.696C160.768 177.511 158.915 176.192 156.433 175.672C155.769 175.533 155.14 175.464 154.545 175.464C151.189 175.464 148.462 177.198 146.33 180.667C144.512 183.616 143.603 186.877 143.603 190.449C143.603 193.12 144.162 195.41 145.281 197.318C146.54 199.503 148.392 200.821 150.874 201.342C151.539 201.48 152.168 201.55 152.762 201.55C156.153 201.55 158.88 199.815 160.978 196.346C162.795 193.363 163.704 190.102 163.704 186.53C163.739 183.824 163.145 181.569 162.026 179.696ZM157.622 189.305C157.132 191.594 156.258 193.294 154.965 194.439C153.951 195.341 153.007 195.722 152.133 195.549C151.294 195.375 150.595 194.647 150.07 193.294C149.651 192.219 149.441 191.143 149.441 190.137C149.441 189.27 149.511 188.403 149.686 187.605C150 186.183 150.595 184.795 151.539 183.477C152.692 181.777 153.916 181.084 155.174 181.326C156.014 181.5 156.713 182.228 157.237 183.581C157.657 184.656 157.866 185.732 157.866 186.738C157.866 187.64 157.796 188.507 157.622 189.305ZM140.142 179.696C138.883 177.511 136.995 176.192 134.548 175.672C133.884 175.533 133.255 175.464 132.661 175.464C129.304 175.464 126.578 177.198 124.445 180.667C122.627 183.616 121.718 186.877 121.718 190.449C121.718 193.12 122.278 195.41 123.396 197.318C124.655 199.503 126.508 200.821 128.99 201.342C129.654 201.48 130.283 201.55 130.878 201.55C134.269 201.55 136.995 199.815 139.093 196.346C140.911 193.363 141.82 190.102 141.82 186.53C141.82 183.824 141.26 181.569 140.142 179.696ZM135.702 189.305C135.213 191.594 134.339 193.294 133.045 194.439C132.031 195.341 131.087 195.722 130.213 195.549C129.374 195.375 128.675 194.647 128.151 193.294C127.731 192.219 127.521 191.143 127.521 190.137C127.521 189.27 127.591 188.403 127.766 187.605C128.081 186.183 128.675 184.795 129.619 183.477C130.773 181.777 131.996 181.084 133.255 181.326C134.094 181.5 134.793 182.228 135.317 183.581C135.737 184.656 135.947 185.732 135.947 186.738C135.982 187.64 135.877 188.507 135.702 189.305Z" fill="white"/>
</g>
<path d="M93.1016 137.027C93.1016 138.071 92.7598 138.871 92.0762 139.427C91.3926 139.983 90.4196 140.261 89.1572 140.261H88.1182V144H86.4844V134.006H89.3623C90.611 134.006 91.5452 134.261 92.165 134.771C92.7894 135.282 93.1016 136.034 93.1016 137.027ZM88.1182 138.887H88.9863C89.8249 138.887 90.4401 138.741 90.832 138.449C91.224 138.158 91.4199 137.702 91.4199 137.082C91.4199 136.508 91.2445 136.079 90.8936 135.797C90.5426 135.514 89.9958 135.373 89.2529 135.373H88.1182V138.887ZM96.5332 144H94.9268V133.363H96.5332V144ZM104.169 144L103.943 143.009H103.861C103.638 143.36 103.319 143.635 102.904 143.836C102.494 144.036 102.025 144.137 101.496 144.137C100.58 144.137 99.8965 143.909 99.4453 143.453C98.9941 142.997 98.7686 142.307 98.7686 141.382V136.439H100.389V141.102C100.389 141.68 100.507 142.116 100.744 142.407C100.981 142.694 101.353 142.838 101.858 142.838C102.533 142.838 103.027 142.637 103.342 142.236C103.661 141.831 103.82 141.154 103.82 140.206V136.439H105.434V144H104.169ZM114.108 136.439V137.321L112.816 137.561C112.935 137.72 113.033 137.916 113.11 138.148C113.188 138.381 113.227 138.627 113.227 138.887C113.227 139.666 112.958 140.279 112.42 140.726C111.882 141.172 111.142 141.396 110.198 141.396C109.957 141.396 109.738 141.377 109.542 141.341C109.196 141.555 109.022 141.806 109.022 142.093C109.022 142.266 109.102 142.396 109.262 142.482C109.426 142.569 109.724 142.612 110.157 142.612H111.477C112.311 142.612 112.944 142.79 113.377 143.146C113.81 143.501 114.026 144.014 114.026 144.684C114.026 145.54 113.673 146.201 112.967 146.666C112.26 147.131 111.24 147.363 109.904 147.363C108.874 147.363 108.088 147.181 107.546 146.816C107.004 146.452 106.732 145.932 106.732 145.258C106.732 144.793 106.878 144.401 107.17 144.082C107.466 143.768 107.879 143.549 108.407 143.426C108.193 143.335 108.015 143.189 107.874 142.988C107.737 142.783 107.669 142.569 107.669 142.346C107.669 142.063 107.749 141.824 107.908 141.628C108.068 141.432 108.305 141.238 108.619 141.047C108.227 140.878 107.908 140.605 107.662 140.227C107.421 139.844 107.3 139.397 107.3 138.887C107.3 138.066 107.557 137.431 108.072 136.979C108.592 136.528 109.33 136.303 110.287 136.303C110.501 136.303 110.725 136.319 110.957 136.351C111.194 136.378 111.372 136.408 111.49 136.439H114.108ZM108.168 145.176C108.168 145.522 108.323 145.789 108.633 145.976C108.947 146.162 109.387 146.256 109.952 146.256C110.827 146.256 111.479 146.131 111.907 145.88C112.336 145.629 112.55 145.297 112.55 144.882C112.55 144.554 112.431 144.319 112.194 144.178C111.962 144.041 111.527 143.973 110.889 143.973H109.672C109.212 143.973 108.845 144.08 108.571 144.294C108.302 144.513 108.168 144.807 108.168 145.176ZM108.858 138.887C108.858 139.361 108.979 139.725 109.221 139.98C109.467 140.236 109.818 140.363 110.273 140.363C111.203 140.363 111.668 139.867 111.668 138.873C111.668 138.381 111.552 138.003 111.319 137.738C111.091 137.469 110.743 137.335 110.273 137.335C109.809 137.335 109.455 137.467 109.214 137.731C108.977 137.996 108.858 138.381 108.858 138.887ZM117.123 144H115.517V136.439H117.123V144ZM115.421 134.437C115.421 134.149 115.498 133.928 115.653 133.773C115.813 133.618 116.038 133.541 116.33 133.541C116.613 133.541 116.831 133.618 116.986 133.773C117.146 133.928 117.226 134.149 117.226 134.437C117.226 134.71 117.146 134.926 116.986 135.086C116.831 135.241 116.613 135.318 116.33 135.318C116.038 135.318 115.813 135.241 115.653 135.086C115.498 134.926 115.421 134.71 115.421 134.437ZM126.078 144H124.465V139.352C124.465 138.768 124.346 138.333 124.109 138.046C123.877 137.759 123.506 137.615 122.995 137.615C122.316 137.615 121.819 137.816 121.505 138.217C121.19 138.618 121.033 139.29 121.033 140.233V144H119.427V136.439H120.685L120.91 137.431H120.992C121.22 137.071 121.544 136.793 121.963 136.597C122.382 136.401 122.847 136.303 123.357 136.303C125.171 136.303 126.078 137.226 126.078 139.071V144ZM133.393 141.847C133.393 142.585 133.124 143.152 132.586 143.549C132.048 143.941 131.278 144.137 130.275 144.137C129.268 144.137 128.459 143.984 127.849 143.679V142.291C128.737 142.701 129.564 142.906 130.33 142.906C131.319 142.906 131.813 142.608 131.813 142.011C131.813 141.819 131.759 141.66 131.649 141.532C131.54 141.405 131.36 141.272 131.109 141.136C130.859 140.999 130.51 140.844 130.063 140.671C129.193 140.334 128.603 139.996 128.293 139.659C127.988 139.322 127.835 138.884 127.835 138.347C127.835 137.7 128.095 137.198 128.614 136.843C129.138 136.483 129.849 136.303 130.747 136.303C131.636 136.303 132.477 136.483 133.27 136.843L132.75 138.053C131.934 137.715 131.248 137.547 130.692 137.547C129.845 137.547 129.421 137.788 129.421 138.271C129.421 138.508 129.53 138.709 129.749 138.873C129.972 139.037 130.455 139.263 131.198 139.55C131.823 139.791 132.276 140.012 132.559 140.213C132.841 140.413 133.051 140.646 133.188 140.91C133.324 141.17 133.393 141.482 133.393 141.847Z" fill="#4C40CF"/>
<path d="M142.607 144.137C141.65 144.137 140.908 143.793 140.379 143.104H140.283C140.347 143.743 140.379 144.13 140.379 144.267V147.363H138.772V136.439H140.071C140.108 136.581 140.183 136.918 140.297 137.451H140.379C140.88 136.686 141.632 136.303 142.635 136.303C143.578 136.303 144.312 136.645 144.836 137.328C145.365 138.012 145.629 138.971 145.629 140.206C145.629 141.441 145.36 142.405 144.822 143.098C144.289 143.79 143.551 144.137 142.607 144.137ZM142.218 137.615C141.58 137.615 141.113 137.802 140.816 138.176C140.525 138.549 140.379 139.146 140.379 139.967V140.206C140.379 141.127 140.525 141.794 140.816 142.209C141.108 142.619 141.584 142.824 142.245 142.824C142.801 142.824 143.229 142.596 143.53 142.141C143.831 141.685 143.981 141.035 143.981 140.192C143.981 139.345 143.831 138.704 143.53 138.271C143.234 137.834 142.797 137.615 142.218 137.615ZM154.201 140.206C154.201 141.441 153.884 142.405 153.251 143.098C152.618 143.79 151.736 144.137 150.605 144.137C149.899 144.137 149.275 143.977 148.732 143.658C148.19 143.339 147.773 142.881 147.481 142.284C147.19 141.687 147.044 140.994 147.044 140.206C147.044 138.98 147.358 138.023 147.987 137.335C148.616 136.647 149.503 136.303 150.646 136.303C151.74 136.303 152.606 136.656 153.244 137.362C153.882 138.064 154.201 139.012 154.201 140.206ZM148.698 140.206C148.698 141.951 149.343 142.824 150.633 142.824C151.909 142.824 152.547 141.951 152.547 140.206C152.547 138.479 151.904 137.615 150.619 137.615C149.945 137.615 149.455 137.839 149.149 138.285C148.849 138.732 148.698 139.372 148.698 140.206ZM161.386 144L161.16 143.009H161.078C160.855 143.36 160.536 143.635 160.121 143.836C159.711 144.036 159.242 144.137 158.713 144.137C157.797 144.137 157.113 143.909 156.662 143.453C156.211 142.997 155.985 142.307 155.985 141.382V136.439H157.605V141.102C157.605 141.68 157.724 142.116 157.961 142.407C158.198 142.694 158.569 142.838 159.075 142.838C159.75 142.838 160.244 142.637 160.559 142.236C160.878 141.831 161.037 141.154 161.037 140.206V136.439H162.65V144H161.386ZM168.775 136.303C169.099 136.303 169.366 136.326 169.575 136.371L169.418 137.868C169.19 137.813 168.953 137.786 168.707 137.786C168.064 137.786 167.543 137.996 167.142 138.415C166.745 138.834 166.547 139.379 166.547 140.049V144H164.94V136.439H166.198L166.41 137.772H166.492C166.743 137.321 167.069 136.964 167.47 136.699C167.875 136.435 168.311 136.303 168.775 136.303Z" fill="#505870"/>
<defs>
<linearGradient id="paint0_linear_1_3" x1="126.858" y1="87.3089" x2="150.405" y2="49.982" gradientUnits="userSpaceOnUse">
<stop stop-color="#89356D"/>
<stop offset="0.21" stop-color="#B94794"/>
</linearGradient>
<linearGradient id="paint1_linear_1_3" x1="126.858" y1="87.3089" x2="150.405" y2="49.982" gradientUnits="userSpaceOnUse">
<stop stop-color="#89356D"/>
<stop offset="0.21" stop-color="#B94794"/>
</linearGradient>
<linearGradient id="paint2_linear_1_3" x1="106.774" y1="51.6835" x2="146.027" y2="64.8397" gradientUnits="userSpaceOnUse">
<stop offset="0.6" stop-color="#F59C1C"/>
<stop offset="1" stop-color="#C7702B"/>
</linearGradient>
<linearGradient id="paint3_linear_1_3" x1="108.672" y1="53.5108" x2="130.908" y2="93.1747" gradientUnits="userSpaceOnUse">
<stop stop-color="#498A63"/>
<stop offset="0.25" stop-color="#61B984"/>
</linearGradient>
<clipPath id="clip0_1_3">
<rect width="86" height="51" fill="white" transform="translate(82 167)"/>
</clipPath>
</defs>
</svg>
